HIERARCHY
ROOT hip
{
	OFFSET 0.000000 0.000000 0.000000 
	CHANNELS 6 Xposition Yposition Zposition Xrotation Zrotation Yrotation
	JOINT abdomen
	{
		OFFSET 0.000000 3.402643 0.000000 
		CHANNELS 3 Xrotation Zrotation Yrotation
		JOINT chest
		{
			OFFSET 0.000000 8.438565 -0.680529 
			CHANNELS 3 Xrotation Zrotation Yrotation
			JOINT neck
			{
				OFFSET 0.000000 10.207942 -0.272212 
				CHANNELS 3 Xrotation Zrotation Yrotation
				JOINT head
				{
					OFFSET 0.000000 3.130431 0.000000 
					CHANNELS 3 Xrotation Zrotation Yrotation
					End Site
					{
						OFFSET 0.000000 3.130435 0.000000 
					}
				}
			}
			JOINT lCollar
			{
				OFFSET 3.470700 6.669187 -0.816635 
				CHANNELS 3 Yrotation Zrotation Xrotation
				JOINT lShldr
				{
					OFFSET 3.198488 0.000000 0.000000 
					CHANNELS 3 Zrotation Yrotation Xrotation
					JOINT lForeArm
					{
						OFFSET 10.139888 0.000000 0.000000 
						CHANNELS 3 Yrotation Zrotation Xrotation
						JOINT lHand
						{
							OFFSET 8.370511 0.000000 0.000000 
							CHANNELS 3 Zrotation Yrotation Xrotation
							End Site
							{
								OFFSET 4.083176 0.000000 0.000000 
							}
						}
					}
				}
			}
			JOINT rCollar
			{
				OFFSET -3.470700 6.669187 -0.816635 
				CHANNELS 3 Yrotation Zrotation Xrotation
				JOINT rShldr
				{
					OFFSET -3.198488 0.000000 0.000000 
					CHANNELS 3 Zrotation Yrotation Xrotation
					JOINT rForeArm
					{
						OFFSET -10.139888 0.000000 0.000000 
						CHANNELS 3 Yrotation Zrotation Xrotation
						JOINT rHand
						{
							OFFSET -8.370511 0.000000 0.000000 
							CHANNELS 3 Zrotation Yrotation Xrotation
							End Site
							{
								OFFSET -4.083176 0.000000 0.000000 
							}
						}
					}
				}
			}
		}
	}
	JOINT lThigh
	{
		OFFSET 5.308129 -1.633274 1.361059 
		CHANNELS 3 Xrotation Zrotation Yrotation
		JOINT lShin
		{
			OFFSET -2.041588 -20.007561 0.000000 
			CHANNELS 3 Xrotation Zrotation Yrotation
			JOINT lFoot
			{
				OFFSET 0.000000 -19.190928 -1.224953 
				CHANNELS 3 Xrotation Yrotation Zrotation
				End Site
				{
					OFFSET 0.000000 -2.449906 4.627600 
				}
			}
		}
	}
	JOINT rThigh
	{
		OFFSET -5.308129 -1.633274 1.361059 
		CHANNELS 3 Xrotation Zrotation Yrotation
		JOINT rShin
		{
			OFFSET 2.041588 -20.007561 0.000000 
			CHANNELS 3 Xrotation Zrotation Yrotation
			JOINT rFoot
			{
				OFFSET 0.000000 -19.190928 -1.224953 
				CHANNELS 3 Xrotation Yrotation Zrotation
				End Site
				{
					OFFSET 0.000000 -2.449906 4.627600 
				}
			}
		}
	}
}
MOTION
Frames: 13
Frame Time: 0.011111
2.912468 53.321037 -10.503722 12.315771 -8.030642 52.708485 11.189291 -10.953702 1.268572 -36.160664 -2.749660 1.828239 -12.842214 0.572019 13.285214 14.028155 11.720704 28.538759 -10.275489 -5.709454 -1.550532 -68.350594 -27.336113 57.751694 -100.475159 10.345137 40.650150 8.524705 12.647240 -39.456432 5.831508 6.350754 -0.460990 76.176102 -21.016956 -16.944828 85.910049 -1.675008 28.260056 -8.534408 -12.637552 65.853378 -9.322388 3.675233 30.655334 39.643120 -4.690603 -6.051009 -20.618551 3.932944 -1.263891 -27.583534 -16.244793 -20.974682 48.969097 3.894094 7.069366 -13.227081 -11.826422 0.642836 
2.501610 53.104294 -10.454771 12.875936 -6.193069 43.823185 10.327212 -10.238843 -0.333363 -36.434326 -2.533822 1.259076 -13.375028 -0.297151 12.060043 14.862464 13.625479 26.106606 -10.275489 -5.709454 -1.550532 -69.038910 -25.110516 57.925453 -99.544487 10.121643 40.202114 8.524705 12.647240 -36.350967 5.831508 6.350754 -0.460990 76.269661 -19.580057 -14.479912 86.030174 -1.477539 28.705591 -8.534408 -12.637552 66.878769 -9.108681 4.554044 34.740410 42.329933 -4.492639 -6.350870 -20.672533 6.018353 -0.552385 -27.057703 -15.367234 -23.817459 48.851616 3.886738 7.065931 -10.581046 -8.734583 1.655929 
2.041463 53.225159 -10.313993 12.975120 -4.699857 35.303864 9.637351 -9.186447 -2.237303 -36.588619 -2.154201 0.547004 -14.163999 -1.457901 10.454909 15.351144 15.952122 22.763004 -10.275489 -5.709454 -1.550532 -69.752556 -23.170414 58.053234 -98.456627 9.826990 39.672390 8.524705 12.647240 -34.485733 5.831508 6.350754 -0.460990 77.025963 -17.389322 -12.356057 86.104385 -1.361780 29.047056 -8.534408 -12.637552 66.654160 -9.958822 6.086614 36.299751 45.346947 -4.222985 -6.722039 -19.812981 9.545842 0.336300 -26.521883 -13.650316 -24.999922 47.023026 4.062445 6.849360 -9.360149 -5.934191 2.220158 
1.561734 53.466877 -10.187730 12.440473 -3.864261 27.132799 9.104061 -6.964070 -4.303570 -36.742550 -1.925984 -0.295193 -14.721725 -3.373134 8.905937 16.388084 18.498219 19.378542 -10.275489 -5.709454 -1.550532 -70.898666 -20.695021 57.627563 -97.176498 9.432749 39.043758 8.524705 12.647240 -33.216198 5.831508 6.350754 -0.460990 75.894226 -16.426313 -6.934485 86.186554 -1.273974 29.552753 -8.534408 -12.637552 68.187355 -11.482363 8.546328 36.029163 48.948433 -3.900987 -7.090121 -17.725609 13.506345 0.829306 -25.243887 -10.449117 -24.762714 44.699989 4.257608 6.593173 -9.932050 -4.840403 2.332361 
1.103274 53.653904 -10.073283 11.630422 -3.389386 18.929262 8.846786 -4.239962 -6.350598 -36.749096 -1.948388 -1.139219 -14.278492 -4.535913 6.263494 15.374797 19.379618 13.523888 -10.275489 -5.709454 -1.550532 -71.607658 -18.298876 56.764977 -95.997551 9.016625 38.460487 8.524705 12.647240 -33.518932 5.831508 6.350754 -0.460990 75.655296 -14.221341 -2.314695 86.223572 -1.262553 29.808355 -8.534408 -12.637552 67.591652 -13.113995 11.439367 34.825535 52.836189 -3.511107 -7.501177 -13.207403 17.399805 0.204754 -24.154449 -6.187367 -20.942013 42.677914 4.433311 6.378942 -7.710143 -5.811081 2.416927 
0.621521 53.488483 -10.037160 10.977572 -3.141321 10.683141 8.594969 -1.867685 -7.911153 -35.657619 -1.195868 -1.916373 -15.041616 -7.152816 4.302330 15.539233 21.521252 8.627081 -10.275489 -5.709454 -1.550532 -72.511742 -17.264322 56.141792 -94.798943 8.537984 37.852573 8.524705 12.647240 -34.329475 5.831508 6.350754 -0.460990 74.153099 -12.002045 2.439016 86.287697 -1.320962 30.264971 -8.534408 -12.637552 69.046730 -15.048820 15.175545 33.963837 57.010571 -3.089987 -7.878113 -5.102931 19.062092 -2.097502 -23.240446 -2.665601 -18.068567 41.611641 4.521269 6.260705 -6.608953 -3.923333 2.722167 
0.196145 53.091133 -10.051003 9.732780 -1.806476 2.097778 10.010051 -0.294796 -10.110894 -36.512245 -1.812596 -2.602606 -14.513669 -9.159532 1.883235 15.652256 24.510759 3.382268 -10.275489 -5.709454 -1.550532 -71.785759 -14.262876 54.713982 -94.261421 8.303727 37.571171 8.524705 12.647240 -35.794323 5.831508 6.350754 -0.460990 74.783951 -10.210641 7.225656 86.322830 -1.373980 30.506609 -8.534408 -12.637552 67.171738 -15.564994 16.779207 31.896967 60.736801 -2.662719 -8.218517 1.347736 18.437908 -3.871307 -22.068554 -0.693460 -14.891145 41.678745 4.544635 6.264461 -6.350566 -1.762246 2.962548 
-0.133014 52.888565 -10.143842 8.800379 -0.229273 -6.597486 11.091459 0.175866 -11.687195 -36.573063 -1.362650 -3.145988 -13.166247 -11.420281 -1.171177 13.756467 26.412680 -3.699551 -10.275489 -5.709454 -1.550532 -71.765770 -12.081670 53.866146 -93.791573 8.082376 37.335304 8.524705 12.647240 -36.888073 5.831508 6.350754 -0.460990 74.370880 -8.438869 11.709293 86.394646 -1.519863 30.889275 -8.534408 -12.637552 66.702988 -16.542324 16.531040 27.706619 63.208652 -2.369872 -8.409227 -1.195493 13.170432 -3.004267 -21.296951 0.586087 -13.013034 42.056408 4.482248 6.304091 -5.908663 0.759104 3.284225 
-0.365958 52.685001 -10.259300 7.797906 1.756118 -15.790337 12.115957 0.251639 -13.004710 -37.234375 -2.142285 -3.453767 -11.119300 -12.927040 -4.552802 12.043026 28.798464 -10.923977 -10.275489 -5.709454 -1.550532 -70.623962 -9.058380 52.473602 -93.694450 8.037431 37.280224 8.524705 12.647240 -37.181038 5.831508 6.350754 -0.460990 74.397568 -7.728167 17.195177 86.526558 -1.799495 31.391798 -8.534408 -12.637552 67.406105 -17.554941 14.963222 23.214924 64.253464 -2.242090 -8.482426 -3.906147 13.398949 -2.480455 -21.019484 1.162442 -11.444634 42.608845 4.449626 6.349968 -5.395633 2.741024 3.497070 
-0.508424 52.551308 -10.208998 6.068272 4.606781 -25.594101 12.749724 -1.612065 -13.749978 -37.053173 -0.708979 -3.675148 -8.416859 -14.446015 -8.300163 8.929213 28.982729 -19.175955 -10.275489 -5.709454 -1.550532 -71.097046 -6.900605 51.305031 -93.732628 8.055358 37.292542 8.524705 12.647240 -37.278694 5.831508 6.350754 -0.460990 73.624878 -5.888959 20.970819 86.589851 -1.928823 31.580069 -8.534408 -12.637552 67.347519 -17.089689 11.738095 19.306883 63.735909 -2.320032 -8.450176 -6.833057 14.553265 -1.818791 -20.541281 -0.009094 -11.074916 42.923977 4.413908 6.421982 -4.628085 5.603171 3.798907 
-0.726851 52.492565 -10.150595 3.501824 7.378596 -35.856945 13.391101 -4.221607 -14.542734 -37.054718 0.374705 -3.795010 -5.852562 -16.104006 -11.983774 6.878290 30.522295 -27.080349 -10.275489 -5.709454 -1.550532 -71.168373 -4.341728 49.994061 -93.849159 8.109198 37.358685 8.524705 12.647240 -38.216198 5.831508 6.350754 -0.460990 72.901581 -4.899061 24.695389 86.740616 -2.217812 31.936468 -8.534408 -12.637552 67.318222 -16.543041 7.890746 15.193573 62.535519 -2.467321 -8.336497 -10.921850 16.339914 -0.609421 -20.126081 -1.406158 -9.821988 43.131386 4.394426 6.442214 -4.249599 7.550003 4.007362 
-0.908817 52.467918 -10.004413 1.157267 8.900986 -46.619423 13.565453 -5.531466 -14.379998 -37.038788 0.795346 -3.707543 -2.954749 -16.650663 -15.573012 4.795300 31.059786 -34.414558 -10.275489 -5.709454 -1.550532 -71.058586 -1.660929 48.463074 -94.041161 8.199898 37.458176 8.524705 12.647240 -38.733772 5.831508 6.350754 -0.460990 72.751785 -3.746425 28.134264 86.878632 -2.460235 32.198044 -8.534408 -12.637552 66.810410 -15.745892 5.279641 11.190744 61.020622 -2.640788 -8.229067 -14.797338 18.547768 0.885237 -19.352985 -1.982180 -8.625119 42.983231 4.413811 6.417346 -4.004095 9.149707 4.175824 
-1.133658 52.524303 -9.796789 0.406401 9.345006 -57.230503 12.879773 -4.572386 -13.375235 -37.021255 0.881184 -3.595932 1.343320 -15.224683 -19.316990 -0.775721 29.592201 -42.100220 -10.275489 -5.709454 -1.550532 -71.323891 1.477138 46.602478 -94.359566 8.346605 37.626579 8.524705 12.647240 -39.202526 5.831508 6.350754 -0.460990 71.633179 -2.987155 31.928738 87.065521 -2.760005 32.516495 -8.534408 -12.637552 66.712746 -16.533037 5.380862 7.908991 59.828156 -2.782168 -8.125491 -18.660480 19.122042 2.357924 -18.373505 -0.790430 -7.687520 42.312283 4.472492 6.332281 -3.947968 9.460944 4.195560 
